<svg xmlns="http://www.w3.org/2000/svg" xmlns:xlink="http://www.w3.org/1999/xlink" width="500" zoomAndPan="magnify" viewBox="0 0 375 374.999991" height="500" preserveAspectRatio="xMidYMid meet" version="1.0"><path fill="#caddff" d="M 44.65625 314.402344 C 60.601562 335.632812 86.242188 344.074219 102.144531 349.308594 C 170.878906 371.933594 254.445312 347.765625 305.320312 306.195312 C 355.527344 265.160156 374.933594 175.46875 339.867188 99.164062 C 304.660156 22.558594 233.148438 2.933594 171.191406 4.933594 C 72.8125 8.113281 12.558594 41.535156 3.480469 108.378906 C 2.535156 115.324219 4.8125 121.316406 4.8125 121.316406 C 9.414062 136.847656 24.300781 143.914062 33.980469 179.457031 C 51.789062 244.855469 16.683594 277.164062 44.65625 314.402344 " fill-opacity="1" fill-rule="nonzero"/><path fill="#000000" d="M 262.992188 27.785156 C 262.871094 27.785156 262.75 27.753906 262.640625 27.679688 C 262.347656 27.488281 262.261719 27.089844 262.453125 26.792969 L 264.269531 24.023438 C 264.460938 23.726562 264.859375 23.644531 265.15625 23.839844 C 265.453125 24.03125 265.535156 24.425781 265.339844 24.722656 L 263.527344 27.496094 C 263.40625 27.683594 263.199219 27.785156 262.992188 27.785156 " fill-opacity="1" fill-rule="nonzero"/><path fill="#000000" d="M 258.769531 34.242188 C 258.644531 34.242188 258.527344 34.207031 258.417969 34.136719 C 258.121094 33.945312 258.039062 33.546875 258.234375 33.25 L 260.046875 30.480469 C 260.238281 30.183594 260.636719 30.101562 260.933594 30.292969 C 261.230469 30.488281 261.3125 30.886719 261.117188 31.179688 L 259.304688 33.949219 C 259.179688 34.136719 258.976562 34.242188 258.769531 34.242188 " fill-opacity="1" fill-rule="nonzero"/><path fill="#000000" d="M 259.941406 28.421875 C 259.824219 28.421875 259.699219 28.386719 259.59375 28.316406 L 256.820312 26.507812 C 256.527344 26.3125 256.441406 25.914062 256.636719 25.617188 C 256.828125 25.324219 257.226562 25.238281 257.523438 25.433594 L 260.292969 27.246094 C 260.589844 27.441406 260.675781 27.839844 260.476562 28.132812 C 260.355469 28.320312 260.152344 28.421875 259.941406 28.421875 " fill-opacity="1" fill-rule="nonzero"/><path fill="#000000" d="M 266.402344 32.640625 C 266.285156 32.640625 266.160156 32.609375 266.054688 32.539062 L 263.28125 30.726562 C 262.984375 30.53125 262.902344 30.132812 263.097656 29.839844 C 263.289062 29.542969 263.6875 29.460938 263.980469 29.652344 L 266.753906 31.46875 C 267.050781 31.660156 267.132812 32.058594 266.941406 32.351562 C 266.820312 32.539062 266.613281 32.640625 266.402344 32.640625 " fill-opacity="1" fill-rule="nonzero"/><path fill="#000000" d="M 28.765625 90.003906 C 28.648438 90.003906 28.523438 89.96875 28.417969 89.894531 C 28.121094 89.703125 28.039062 89.304688 28.230469 89.011719 L 30.046875 86.238281 C 30.238281 85.945312 30.636719 85.859375 30.933594 86.054688 C 31.226562 86.25 31.3125 86.644531 31.117188 86.941406 L 29.304688 89.710938 C 29.179688 89.898438 28.976562 90.003906 28.765625 90.003906 " fill-opacity="1" fill-rule="nonzero"/><path fill="#000000" d="M 24.542969 96.457031 C 24.421875 96.457031 24.300781 96.421875 24.191406 96.351562 C 23.898438 96.160156 23.8125 95.761719 24.007812 95.464844 L 25.820312 92.695312 C 26.015625 92.398438 26.414062 92.316406 26.707031 92.511719 C 27.003906 92.703125 27.085938 93.101562 26.894531 93.398438 L 25.078125 96.167969 C 24.957031 96.355469 24.753906 96.457031 24.542969 96.457031 " fill-opacity="1" fill-rule="nonzero"/><path fill="#000000" d="M 25.71875 90.636719 C 25.597656 90.636719 25.476562 90.605469 25.367188 90.53125 L 22.597656 88.71875 C 22.300781 88.527344 22.21875 88.132812 22.410156 87.835938 C 22.605469 87.539062 23 87.457031 23.296875 87.648438 L 26.070312 89.460938 C 26.367188 89.65625 26.449219 90.054688 26.253906 90.347656 C 26.132812 90.535156 25.929688 90.636719 25.71875 90.636719 " fill-opacity="1" fill-rule="nonzero"/><path fill="#000000" d="M 32.179688 94.863281 C 32.058594 94.863281 31.9375 94.828125 31.828125 94.757812 L 29.054688 92.945312 C 28.757812 92.75 28.675781 92.351562 28.871094 92.058594 C 29.0625 91.761719 29.460938 91.679688 29.757812 91.871094 L 32.527344 93.683594 C 32.824219 93.878906 32.90625 94.273438 32.714844 94.574219 C 32.589844 94.761719 32.386719 94.863281 32.179688 94.863281 " fill-opacity="1" fill-rule="nonzero"/><path fill="#000000" d="M 345.628906 199.28125 C 345.507812 199.28125 345.386719 199.246094 345.277344 199.175781 C 344.980469 198.984375 344.898438 198.585938 345.09375 198.292969 L 346.90625 195.519531 C 347.097656 195.222656 347.496094 195.140625 347.792969 195.332031 C 348.089844 195.527344 348.171875 195.925781 347.976562 196.21875 L 346.164062 198.992188 C 346.042969 199.179688 345.839844 199.28125 345.628906 199.28125 " fill-opacity="1" fill-rule="nonzero"/><path fill="#000000" d="M 341.40625 205.738281 C 341.28125 205.738281 341.160156 205.703125 341.054688 205.632812 C 340.757812 205.441406 340.671875 205.042969 340.867188 204.746094 L 342.683594 201.976562 C 342.875 201.679688 343.269531 201.597656 343.566406 201.789062 C 343.863281 201.984375 343.945312 202.378906 343.753906 202.675781 L 341.9375 205.449219 C 341.816406 205.636719 341.613281 205.738281 341.40625 205.738281 " fill-opacity="1" fill-rule="nonzero"/><path fill="#000000" d="M 342.578125 199.917969 C 342.460938 199.917969 342.335938 199.886719 342.230469 199.8125 L 339.457031 198 C 339.164062 197.808594 339.078125 197.410156 339.273438 197.113281 C 339.464844 196.816406 339.863281 196.734375 340.160156 196.929688 L 342.929688 198.742188 C 343.226562 198.933594 343.308594 199.332031 343.117188 199.628906 C 342.996094 199.816406 342.789062 199.917969 342.578125 199.917969 " fill-opacity="1" fill-rule="nonzero"/><path fill="#000000" d="M 349.039062 204.140625 C 348.917969 204.140625 348.796875 204.105469 348.6875 204.035156 L 345.914062 202.222656 C 345.617188 202.03125 345.535156 201.636719 345.730469 201.339844 C 345.921875 201.042969 346.320312 200.960938 346.617188 201.152344 L 349.390625 202.964844 C 349.683594 203.160156 349.769531 203.554688 349.574219 203.851562 C 349.453125 204.039062 349.246094 204.140625 349.039062 204.140625 " fill-opacity="1" fill-rule="nonzero"/><path fill="#000000" d="M 22.996094 109.667969 L 23 109.667969 Z M 24.507812 109.984375 C 24.082031 109.984375 23.660156 110.074219 23.257812 110.253906 C 21.683594 110.960938 20.96875 112.847656 21.664062 114.457031 C 22.003906 115.242188 22.621094 115.84375 23.40625 116.148438 C 24.171875 116.445312 25.003906 116.425781 25.757812 116.085938 C 27.332031 115.382812 28.046875 113.496094 27.351562 111.882812 C 27.015625 111.097656 26.394531 110.496094 25.609375 110.191406 C 25.253906 110.050781 24.878906 109.984375 24.507812 109.984375 Z M 24.507812 117.636719 C 23.980469 117.636719 23.449219 117.539062 22.941406 117.34375 C 21.835938 116.914062 20.964844 116.066406 20.488281 114.964844 C 19.515625 112.714844 20.523438 110.078125 22.734375 109.085938 C 23.800781 108.605469 24.988281 108.574219 26.074219 108.996094 C 27.183594 109.429688 28.054688 110.273438 28.527344 111.375 C 29.5 113.625 28.492188 116.261719 26.28125 117.253906 C 25.714844 117.511719 25.113281 117.636719 24.507812 117.636719 " fill-opacity="1" fill-rule="nonzero"/><path fill="#ffffff" d="M 76.589844 47.632812 C 76.589844 63.507812 63.710938 76.378906 47.828125 76.378906 C 31.945312 76.378906 19.066406 63.507812 19.066406 47.632812 C 19.066406 31.75 31.945312 18.878906 47.828125 18.878906 C 63.710938 18.878906 76.589844 31.75 76.589844 47.632812 " fill-opacity="1" fill-rule="nonzero"/><path fill="#000000" d="M 47.828125 19.519531 C 32.320312 19.519531 19.707031 32.128906 19.707031 47.628906 C 19.707031 63.128906 32.320312 75.742188 47.828125 75.742188 C 63.335938 75.742188 75.949219 63.128906 75.949219 47.628906 C 75.949219 32.128906 63.335938 19.519531 47.828125 19.519531 Z M 47.828125 77.023438 C 31.617188 77.023438 18.425781 63.835938 18.425781 47.628906 C 18.425781 31.425781 31.617188 18.238281 47.828125 18.238281 C 64.042969 18.238281 77.230469 31.425781 77.230469 47.628906 C 77.230469 63.835938 64.042969 77.023438 47.828125 77.023438 " fill-opacity="1" fill-rule="nonzero"/><path fill="#0652E9" d="M 43.578125 61.65625 C 43.578125 60.589844 43.941406 59.707031 44.667969 59.015625 C 45.398438 58.324219 46.328125 57.976562 47.464844 57.976562 C 48.597656 57.976562 49.53125 58.324219 50.257812 59.015625 C 50.984375 59.707031 51.347656 60.589844 51.347656 61.65625 C 51.347656 62.707031 50.992188 63.574219 50.28125 64.261719 C 49.570312 64.945312 48.628906 65.289062 47.464844 65.289062 C 46.296875 65.289062 45.355469 64.945312 44.644531 64.261719 C 43.933594 63.574219 43.578125 62.707031 43.578125 61.65625 Z M 44.273438 54.308594 C 44.273438 52.070312 44.546875 50.285156 45.089844 48.957031 C 45.632812 47.628906 46.628906 46.320312 48.074219 45.03125 C 49.523438 43.746094 50.484375 42.699219 50.964844 41.886719 C 51.445312 41.082031 51.683594 40.226562 51.683594 39.332031 C 51.683594 36.625 50.4375 35.273438 47.941406 35.273438 C 46.761719 35.273438 45.8125 35.636719 45.101562 36.363281 C 44.390625 37.09375 44.019531 38.101562 43.984375 39.382812 L 37.03125 39.382812 C 37.0625 36.328125 38.050781 33.933594 39.992188 32.207031 C 41.933594 30.480469 44.585938 29.613281 47.941406 29.613281 C 51.332031 29.613281 53.964844 30.433594 55.835938 32.074219 C 57.703125 33.714844 58.640625 36.03125 58.640625 39.023438 C 58.640625 40.382812 58.335938 41.667969 57.730469 42.875 C 57.121094 44.078125 56.058594 45.421875 54.539062 46.894531 L 52.597656 48.738281 C 51.382812 49.910156 50.683594 51.277344 50.511719 52.84375 L 50.414062 54.308594 L 44.273438 54.308594 " fill-opacity="1" fill-rule="nonzero"/><path fill="#0652E9" d="M 160.835938 20.546875 L 143.855469 47.003906 L 177.152344 45.964844 L 160.835938 20.546875 " fill-opacity="1" fill-rule="nonzero"/><path fill="#0652E9" d="M 316.582031 121.96875 L 301.003906 148.050781 L 334.320312 148.101562 L 316.582031 121.96875 " fill-opacity="1" fill-rule="nonzero"/><path fill="#0652E9" d="M 240.570312 311.285156 C 240.539062 311.285156 240.511719 311.285156 240.480469 311.285156 C 236.355469 311.238281 233.050781 307.855469 233.097656 303.730469 L 235.660156 86.023438 C 235.710938 81.929688 239.042969 78.640625 243.132812 78.640625 C 243.160156 78.640625 243.1875 78.640625 243.222656 78.640625 C 247.347656 78.691406 250.652344 82.074219 250.605469 86.199219 L 248.042969 303.90625 C 247.992188 308 244.660156 311.285156 240.570312 311.285156 " fill-opacity="1" fill-rule="nonzero"/><path fill="#0652E9" d="M 224.800781 90.0625 L 261.3125 90.328125 L 244.113281 60.4375 L 224.800781 90.0625 " fill-opacity="1" fill-rule="nonzero"/><path fill="#0652E9" d="M 148.761719 357.390625 C 145.972656 357.390625 143.292969 355.820312 142.011719 353.128906 C 140.238281 349.402344 141.820312 344.945312 145.546875 343.171875 L 275.167969 281.492188 L 278.238281 216.808594 C 278.339844 214.628906 279.390625 212.609375 281.109375 211.269531 L 308.171875 190.179688 L 309.753906 142.636719 C 309.894531 138.511719 313.347656 135.277344 317.472656 135.417969 C 321.597656 135.554688 324.832031 139.007812 324.695312 143.132812 L 322.992188 194.171875 C 322.921875 196.386719 321.867188 198.453125 320.121094 199.8125 L 293.003906 220.941406 L 289.886719 286.667969 C 289.757812 289.417969 288.121094 291.875 285.632812 293.058594 L 151.96875 356.664062 C 150.933594 357.15625 149.839844 357.390625 148.761719 357.390625 " fill-opacity="1" fill-rule="nonzero"/><path fill="#0652E9" d="M 238.726562 272.441406 C 236.933594 272.441406 235.140625 271.800781 233.707031 270.503906 L 197.917969 238.0625 C 196.371094 236.660156 195.480469 234.675781 195.464844 232.589844 L 194.613281 126.589844 L 159.316406 123 C 155.496094 122.609375 152.589844 119.386719 152.601562 115.546875 L 152.816406 40.414062 C 152.828125 36.296875 156.167969 32.96875 160.289062 32.96875 C 160.292969 32.96875 160.300781 32.96875 160.308594 32.96875 C 164.433594 32.980469 167.773438 36.332031 167.761719 40.457031 L 167.566406 108.820312 L 202.785156 112.40625 C 206.578125 112.789062 209.472656 115.964844 209.503906 119.777344 L 210.382812 229.195312 L 243.75 259.4375 C 246.804688 262.210938 247.039062 266.933594 244.265625 269.988281 C 242.789062 271.617188 240.761719 272.441406 238.726562 272.441406 " fill-opacity="1" fill-rule="nonzero"/><path fill="#99b9ff" d="M 304.398438 85.042969 C 297.550781 86.917969 290.476562 82.882812 288.601562 76.035156 C 286.726562 69.183594 290.757812 62.109375 297.609375 60.234375 C 304.457031 58.355469 311.527344 62.390625 313.402344 69.238281 C 315.28125 76.089844 311.25 83.164062 304.398438 85.042969 Z M 326.582031 68.21875 L 325.265625 63.402344 L 319.816406 63.648438 C 319.308594 62.585938 318.726562 61.582031 318.0625 60.640625 L 320.949219 56.019531 L 317.398438 52.503906 L 312.800781 55.445312 C 311.84375 54.789062 310.832031 54.214844 309.78125 53.722656 L 309.96875 48.269531 L 305.140625 47.003906 L 302.628906 51.839844 C 301.484375 51.75 300.324219 51.757812 299.152344 51.867188 L 296.589844 47.046875 L 291.773438 48.367188 L 292.019531 53.820312 C 290.957031 54.324219 289.953125 54.910156 289.015625 55.570312 L 284.390625 52.683594 L 280.878906 56.238281 L 283.816406 60.835938 C 283.160156 61.792969 282.585938 62.800781 282.097656 63.855469 L 276.640625 63.667969 L 275.375 68.5 L 280.214844 71.007812 C 280.125 72.15625 280.132812 73.320312 280.238281 74.488281 L 275.425781 77.054688 L 276.746094 81.871094 L 282.191406 81.625 C 282.695312 82.683594 283.28125 83.691406 283.945312 84.632812 L 281.058594 89.253906 L 284.609375 92.769531 L 289.207031 89.828125 C 290.164062 90.484375 291.171875 91.0625 292.226562 91.550781 L 292.035156 97.003906 L 296.871094 98.273438 L 299.375 93.433594 C 300.523438 93.523438 301.6875 93.511719 302.855469 93.410156 L 305.417969 98.222656 L 310.238281 96.90625 L 309.988281 91.453125 C 311.046875 90.949219 312.054688 90.363281 312.996094 89.703125 L 317.617188 92.585938 L 321.128906 89.035156 L 318.1875 84.4375 C 318.84375 83.480469 319.421875 82.46875 319.910156 81.417969 L 325.363281 81.605469 L 326.628906 76.773438 L 321.792969 74.265625 C 321.878906 73.117188 321.875 71.957031 321.765625 70.785156 L 326.582031 68.21875 " fill-opacity="1" fill-rule="nonzero"/><path fill="#99b9ff" d="M 164.074219 307.859375 C 156.78125 309.855469 149.253906 305.5625 147.257812 298.265625 C 145.261719 290.972656 149.554688 283.441406 156.84375 281.445312 C 164.136719 279.449219 171.667969 283.742188 173.664062 291.035156 C 175.660156 298.328125 171.367188 305.859375 164.074219 307.859375 Z M 187.695312 289.949219 L 186.289062 284.820312 L 180.488281 285.082031 C 179.953125 283.953125 179.328125 282.882812 178.625 281.878906 L 181.695312 276.957031 L 177.914062 273.21875 L 173.019531 276.347656 C 172.003906 275.648438 170.929688 275.035156 169.808594 274.515625 L 170.007812 268.707031 L 164.863281 267.359375 L 162.195312 272.507812 C 160.972656 272.414062 159.734375 272.425781 158.488281 272.535156 L 155.761719 267.40625 L 150.632812 268.8125 L 150.894531 274.617188 C 149.765625 275.152344 148.695312 275.777344 147.695312 276.480469 L 142.773438 273.410156 L 139.035156 277.191406 L 142.164062 282.085938 C 141.464844 283.105469 140.851562 284.183594 140.332031 285.300781 L 134.523438 285.101562 L 133.179688 290.246094 L 138.328125 292.917969 C 138.230469 294.136719 138.242188 295.375 138.351562 296.621094 L 133.226562 299.351562 L 134.632812 304.484375 L 140.433594 304.21875 C 140.96875 305.347656 141.59375 306.421875 142.296875 307.421875 L 139.226562 312.34375 L 143.007812 316.085938 L 147.898438 312.953125 C 148.917969 313.652344 149.992188 314.265625 151.113281 314.789062 L 150.914062 320.59375 L 156.058594 321.941406 L 158.726562 316.792969 C 159.949219 316.886719 161.1875 316.878906 162.433594 316.765625 L 165.160156 321.894531 L 170.289062 320.488281 L 170.027344 314.683594 C 171.15625 314.148438 172.226562 313.523438 173.226562 312.820312 L 178.148438 315.894531 L 181.886719 312.109375 L 178.757812 307.214844 C 179.457031 306.195312 180.070312 305.121094 180.589844 304 L 186.394531 304.203125 L 187.742188 299.054688 L 182.59375 296.382812 C 182.691406 295.164062 182.679688 293.925781 182.570312 292.679688 L 187.695312 289.949219 " fill-opacity="1" fill-rule="nonzero"/><path fill="#ffffff" d="M 322.042969 244.460938 C 317.527344 245.699219 312.871094 243.042969 311.632812 238.527344 C 310.398438 234.015625 313.054688 229.355469 317.566406 228.117188 C 322.078125 226.882812 326.738281 229.539062 327.972656 234.050781 C 329.207031 238.566406 326.550781 243.226562 322.042969 244.460938 Z M 336.652344 233.382812 L 335.785156 230.207031 L 332.195312 230.371094 C 331.863281 229.671875 331.476562 229.007812 331.042969 228.390625 L 332.941406 225.34375 L 330.605469 223.027344 L 327.574219 224.964844 C 326.945312 224.53125 326.277344 224.152344 325.585938 223.832031 L 325.710938 220.238281 L 322.527344 219.402344 L 320.875 222.589844 C 320.121094 222.53125 319.355469 222.539062 318.582031 222.609375 L 316.894531 219.433594 L 313.722656 220.304688 L 313.882812 223.894531 C 313.1875 224.226562 312.523438 224.613281 311.90625 225.046875 L 308.859375 223.144531 L 306.542969 225.488281 L 308.480469 228.515625 C 308.046875 229.148438 307.667969 229.8125 307.347656 230.507812 L 303.757812 230.382812 L 302.921875 233.566406 L 306.105469 235.214844 C 306.050781 235.972656 306.054688 236.738281 306.125 237.511719 L 302.953125 239.199219 L 303.820312 242.375 L 307.414062 242.210938 C 307.742188 242.910156 308.132812 243.574219 308.566406 244.191406 L 306.664062 247.238281 L 309.003906 249.554688 L 312.03125 247.613281 C 312.660156 248.046875 313.328125 248.425781 314.019531 248.75 L 313.894531 252.34375 L 317.078125 253.175781 L 318.730469 249.992188 C 319.484375 250.046875 320.253906 250.042969 321.023438 249.972656 L 322.710938 253.148438 L 325.882812 252.277344 L 325.722656 248.6875 C 326.421875 248.355469 327.082031 247.96875 327.703125 247.53125 L 330.746094 249.433594 L 333.0625 247.09375 L 331.125 244.066406 C 331.558594 243.433594 331.9375 242.769531 332.257812 242.074219 L 335.851562 242.199219 L 336.683594 239.015625 L 333.5 237.363281 C 333.558594 236.609375 333.550781 235.839844 333.480469 235.070312 L 336.652344 233.382812 " fill-opacity="1" fill-rule="nonzero"/><path fill="#99b9ff" d="M 30.460938 294.285156 C 28.257812 301.8125 24.804688 312.226562 28.625 317.226562 C 35.574219 326.316406 48.371094 323.304688 56.945312 320.179688 C 74.097656 313.929688 94.429688 305.609375 102.421875 311.097656 L 102.773438 294.285156 L 30.460938 294.285156 " fill-opacity="1" fill-rule="nonzero"/><path fill="#000000" d="M 30.9375 294.929688 C 30.835938 295.273438 30.734375 295.621094 30.628906 295.976562 C 28.460938 303.304688 25.757812 312.425781 29.136719 316.839844 C 34.210938 323.480469 43.496094 324.398438 56.726562 319.578125 C 58.238281 319.027344 59.773438 318.460938 61.320312 317.890625 C 77.304688 311.988281 93.808594 305.898438 101.804688 309.988281 L 102.121094 294.929688 Z M 42.128906 323.902344 C 36.007812 323.902344 31.320312 321.804688 28.117188 317.617188 C 24.347656 312.683594 27.148438 303.21875 29.398438 295.613281 C 29.550781 295.097656 29.699219 294.597656 29.84375 294.105469 C 29.925781 293.835938 30.175781 293.648438 30.457031 293.648438 L 102.773438 293.648438 C 102.945312 293.648438 103.113281 293.714844 103.230469 293.839844 C 103.351562 293.960938 103.417969 294.125 103.414062 294.300781 L 103.0625 311.109375 C 103.058594 311.347656 102.921875 311.558594 102.714844 311.667969 C 102.503906 311.773438 102.253906 311.757812 102.058594 311.625 C 95.046875 306.808594 77.363281 313.332031 61.765625 319.089844 C 60.214844 319.664062 58.675781 320.230469 57.164062 320.78125 C 51.457031 322.863281 46.4375 323.902344 42.128906 323.902344 " fill-opacity="1" fill-rule="nonzero"/><path fill="#000000" d="M 151.460938 357.742188 C 153.4375 333.820312 150.558594 285.625 150.558594 285.625 L 50.992188 268.335938 L 41.054688 296.519531 C 38.078125 305.050781 37.683594 306.21875 33.886719 321.746094 C 33.324219 324.039062 97.371094 366.28125 151.460938 357.742188 " fill-opacity="1" fill-rule="nonzero"/><path fill="#ffffff" d="M 128.804688 133.070312 C 143.050781 133.007812 156.0625 141.058594 162.296875 153.773438 C 169.515625 168.507812 179.707031 207.074219 180.105469 223.914062 C 180.800781 253.351562 155 255.011719 154.234375 255.054688 C 154.226562 255.054688 154.21875 255.0625 154.222656 255.070312 C 154.300781 255.921875 157.316406 287.910156 157.554688 293.585938 C 157.988281 303.972656 138.722656 320.175781 116.589844 312.195312 C 94.570312 304.25 34.410156 288.425781 28.300781 301.898438 C 28.289062 301.917969 28.265625 301.910156 28.269531 301.886719 L 53.507812 208.300781 C 53.511719 208.289062 53.5 208.277344 53.488281 208.277344 L 32.773438 209.277344 C 32.769531 209.277344 32.765625 209.277344 32.765625 209.273438 L 15.890625 199.523438 C 15.886719 199.519531 15.882812 199.511719 15.882812 199.503906 L 20.15625 180.589844 C 28.273438 148.269531 49.984375 133.4375 78.007812 133.308594 L 128.804688 133.070312 " fill-opacity="1" fill-rule="nonzero"/><path fill="#000000" d="M 44.230469 296.023438 C 65.828125 296.023438 101.988281 306.246094 116.804688 311.59375 C 127.511719 315.453125 139.222656 313.855469 148.132812 307.320312 C 153.644531 303.273438 157.09375 297.894531 156.914062 293.613281 C 156.683594 288.171875 153.902344 258.53125 153.585938 255.167969 C 153.585938 255.167969 153.582031 255.128906 153.582031 255.125 C 153.554688 254.765625 153.824219 254.445312 154.183594 254.414062 C 155.261719 254.355469 180.140625 252.640625 179.464844 223.929688 C 179.0625 206.855469 168.703125 168.308594 161.722656 154.058594 C 155.65625 141.683594 142.816406 133.714844 128.976562 133.714844 C 128.917969 133.714844 128.863281 133.714844 128.808594 133.714844 L 128.804688 133.070312 L 128.808594 133.714844 L 78.011719 133.949219 C 48.648438 134.085938 28.320312 150.703125 20.777344 180.742188 L 16.609375 199.199219 L 32.929688 208.632812 L 53.457031 207.640625 C 53.660156 207.625 53.878906 207.726562 54.007812 207.890625 C 54.136719 208.050781 54.179688 208.277344 54.125 208.476562 L 29.652344 299.226562 C 32.53125 296.953125 37.71875 296.023438 44.230469 296.023438 Z M 128.578125 314.945312 C 124.496094 314.945312 120.367188 314.238281 116.371094 312.796875 C 105.027344 308.703125 84.539062 302.84375 66.367188 299.644531 C 44.664062 295.828125 31.351562 296.722656 28.882812 302.164062 C 28.746094 302.46875 28.375 302.628906 28.058594 302.511719 C 27.746094 302.394531 27.5625 302.039062 27.652344 301.71875 L 52.667969 208.957031 L 32.804688 209.917969 C 32.6875 209.921875 32.554688 209.890625 32.445312 209.832031 L 15.570312 200.078125 C 15.328125 199.9375 15.199219 199.636719 15.257812 199.367188 L 19.53125 180.445312 C 23.5 164.644531 30.796875 152.511719 41.222656 144.371094 C 51.085938 136.671875 63.460938 132.734375 78.007812 132.667969 L 128.804688 132.433594 C 128.859375 132.433594 128.917969 132.433594 128.976562 132.433594 C 143.304688 132.433594 156.59375 140.683594 162.871094 153.492188 C 169.90625 167.851562 180.339844 206.6875 180.746094 223.898438 C 181.398438 251.601562 159.128906 255.207031 154.917969 255.636719 C 155.425781 261.058594 157.972656 288.332031 158.195312 293.5625 C 158.394531 298.328125 154.828125 303.996094 148.886719 308.351562 C 142.964844 312.699219 135.847656 314.945312 128.578125 314.945312 " fill-opacity="1" fill-rule="nonzero"/><path fill="#ffffff" d="M 62.371094 205.273438 C 58.5 204.558594 59.558594 200.070312 45.953125 199.261719 C 6.695312 196.921875 25.71875 176.996094 48.210938 180.792969 C 55.664062 182.050781 58.597656 186.871094 61.402344 188.09375 C 84.933594 198.355469 70.089844 206.699219 62.371094 205.273438 " fill-opacity="1" fill-rule="nonzero"/><path fill="#000000" d="M 62.488281 204.644531 C 66.429688 205.367188 72.328125 203.359375 73.339844 200.058594 C 73.949219 198.0625 73.179688 193.929688 61.144531 188.679688 C 60.15625 188.25 59.199219 187.449219 58.09375 186.523438 C 55.816406 184.617188 52.984375 182.25 48.105469 181.425781 C 37.785156 179.679688 28.265625 183.007812 25.019531 187.226562 C 24.230469 188.253906 23.457031 189.839844 24.242188 191.558594 C 25.054688 193.34375 28.804688 197.597656 45.992188 198.621094 C 55.335938 199.179688 57.957031 201.457031 59.871094 203.121094 C 60.75 203.886719 61.386719 204.441406 62.488281 204.644531 Z M 64.265625 206.078125 C 63.570312 206.078125 62.894531 206.019531 62.253906 205.902344 C 60.808594 205.636719 59.945312 204.886719 59.03125 204.089844 C 57.257812 202.546875 54.824219 200.429688 45.914062 199.898438 C 33.136719 199.140625 25.027344 196.367188 23.074219 192.09375 C 22.242188 190.273438 22.566406 188.320312 24.003906 186.445312 C 27.476562 181.925781 37.523438 178.339844 48.316406 180.160156 C 53.542969 181.042969 56.648438 183.640625 58.914062 185.539062 C 59.945312 186.402344 60.835938 187.148438 61.65625 187.507812 C 73.953125 192.871094 75.464844 197.496094 74.5625 200.433594 C 73.496094 203.921875 68.535156 206.078125 64.265625 206.078125 " fill-opacity="1" fill-rule="nonzero"/><path fill="#ffffff" d="M 111.796875 138.582031 C 113.105469 137.464844 112.414062 135.324219 110.699219 135.117188 L 108.035156 134.796875 C 105.175781 134.453125 102.789062 132.546875 101.859375 129.917969 L 97.476562 97.546875 L 88.484375 100.761719 L 76.582031 94.878906 L 77.644531 129.472656 C 77.558594 132.484375 75.59375 135.148438 72.683594 136.191406 L 69.207031 137.433594 C 67.375 138.089844 67.289062 140.570312 69.0625 141.339844 C 76.144531 144.429688 104.933594 144.449219 111.796875 138.582031 " fill-opacity="1" fill-rule="nonzero"/><path fill="#000000" d="M 77.257812 95.925781 L 78.289062 129.449219 C 78.195312 132.789062 76.078125 135.65625 72.902344 136.792969 L 69.421875 138.035156 C 68.710938 138.292969 68.441406 138.890625 68.425781 139.371094 C 68.40625 139.84375 68.636719 140.453125 69.320312 140.753906 C 72.71875 142.234375 81.421875 143.027344 90.488281 142.679688 C 100.667969 142.289062 108.480469 140.574219 111.382812 138.09375 C 111.785156 137.746094 111.933594 137.234375 111.777344 136.71875 C 111.652344 136.300781 111.28125 135.828125 110.621094 135.75 L 107.960938 135.429688 C 104.847656 135.058594 102.28125 133.023438 101.257812 130.128906 C 101.242188 130.089844 101.234375 130.046875 101.226562 130.003906 L 96.949219 98.414062 L 88.699219 101.363281 C 88.535156 101.421875 88.355469 101.410156 88.199219 101.335938 Z M 86.328125 144.039062 C 78.683594 144.039062 71.820312 143.242188 68.808594 141.929688 C 67.742188 141.464844 67.105469 140.464844 67.144531 139.324219 C 67.183594 138.179688 67.890625 137.222656 68.992188 136.832031 L 72.46875 135.585938 C 75.144531 134.628906 76.929688 132.222656 77.007812 129.449219 L 75.941406 94.898438 C 75.933594 94.671875 76.046875 94.460938 76.238281 94.339844 C 76.425781 94.21875 76.664062 94.203125 76.867188 94.304688 L 88.523438 100.066406 L 97.261719 96.941406 C 97.441406 96.878906 97.644531 96.898438 97.808594 97 C 97.972656 97.097656 98.085938 97.269531 98.109375 97.460938 L 102.488281 129.765625 C 103.363281 132.164062 105.511719 133.84375 108.113281 134.160156 L 110.777344 134.480469 C 111.839844 134.605469 112.695312 135.324219 113.003906 136.347656 C 113.308594 137.347656 113.003906 138.390625 112.214844 139.066406 C 107.726562 142.90625 95.558594 143.765625 90.539062 143.957031 C 89.121094 144.011719 87.710938 144.039062 86.328125 144.039062 " fill-opacity="1" fill-rule="nonzero"/><path fill="#ffffff" d="M 101.464844 71.808594 C 116.789062 77.449219 114.152344 87.363281 114.152344 87.363281 C 113.964844 90.089844 113.851562 95.082031 114.363281 96.890625 C 114.78125 98.386719 117.230469 101.195312 117.347656 102.023438 C 117.464844 102.855469 116.136719 104.558594 113.484375 105.160156 C 113.484375 105.160156 112.476562 118.410156 109.003906 120.578125 C 105.527344 122.75 92.148438 118.582031 92.148438 118.582031 L 89.898438 117.679688 C 82.648438 114.777344 78.21875 108.730469 76.109375 101.253906 C 76.109375 101.253906 66.347656 58.882812 101.464844 71.808594 " fill-opacity="1" fill-rule="nonzero"/><path fill="#000000" d="M 92.363281 117.980469 C 96.027344 119.117188 106.023438 121.6875 108.664062 120.035156 C 111.289062 118.398438 112.570312 108.707031 112.84375 105.113281 C 112.867188 104.832031 113.066406 104.597656 113.34375 104.535156 C 115.816406 103.972656 116.765625 102.488281 116.710938 102.113281 C 116.660156 101.851562 116.039062 100.945312 115.585938 100.28125 C 114.804688 99.144531 114 97.96875 113.746094 97.0625 C 113.144531 94.925781 113.375 89.304688 113.515625 87.316406 C 113.519531 87.277344 113.523438 87.234375 113.535156 87.199219 C 113.632812 86.816406 115.792969 77.765625 101.242188 72.410156 C 92.023438 69.015625 85.175781 69.207031 80.894531 72.976562 C 72.152344 80.671875 76.683594 100.90625 76.730469 101.109375 C 78.9375 108.921875 83.574219 114.457031 90.136719 117.085938 Z M 105.726562 121.839844 C 100.644531 121.839844 93.039062 119.53125 91.957031 119.195312 C 91.941406 119.191406 91.925781 119.183594 91.910156 119.179688 L 89.660156 118.277344 C 82.714844 115.492188 77.816406 109.667969 75.492188 101.425781 C 75.285156 100.535156 70.734375 80.214844 80.046875 72.015625 C 84.707031 67.910156 91.988281 67.636719 101.683594 71.207031 C 116.6875 76.730469 114.992188 86.515625 114.789062 87.453125 C 114.589844 90.332031 114.519531 95.078125 114.976562 96.71875 C 115.175781 97.417969 115.988281 98.605469 116.644531 99.558594 C 117.449219 100.734375 117.910156 101.425781 117.980469 101.933594 C 118.15625 103.171875 116.613281 104.9375 114.085938 105.667969 C 113.855469 108.300781 112.726562 119.007812 109.34375 121.121094 C 108.515625 121.636719 107.230469 121.839844 105.726562 121.839844 " fill-opacity="1" fill-rule="nonzero"/><path fill="#000000" d="M 96.417969 64.632812 C 100.445312 65.617188 104.386719 68.128906 106.46875 68.351562 C 109.824219 68.710938 112.25 64.402344 116.488281 65.96875 C 120.21875 67.34375 122.3125 70.515625 122.84375 74.089844 C 122.933594 74.683594 122.957031 75.316406 122.898438 75.992188 C 122.113281 85.03125 116.453125 86.949219 114.15625 87.359375 C 114.15625 87.359375 100.847656 86.128906 98.253906 86.757812 C 95.824219 87.347656 92.070312 91.125 90.941406 96.492188 C 90.796875 97.183594 90.191406 97.691406 89.480469 97.742188 C 88.648438 97.804688 87.894531 97.234375 87.753906 96.417969 C 87.308594 93.839844 86.09375 88.6875 83.476562 88.535156 C 80.421875 88.359375 76.535156 94.390625 80.527344 98.171875 C 81.757812 99.335938 81.347656 101.457031 79.773438 102.089844 C 78.464844 102.617188 76.828125 102.648438 75.058594 101.214844 C 75.058594 101.214844 67.179688 87.410156 70.9375 75.757812 C 74.695312 64.105469 91.058594 63.324219 96.417969 64.632812 " fill-opacity="1" fill-rule="nonzero"/><path fill="#000000" d="M 117.816406 101.671875 C 117.644531 101.671875 117.472656 101.601562 117.347656 101.464844 C 117.105469 101.207031 117.121094 100.800781 117.382812 100.5625 C 118.320312 99.691406 119 97.738281 119.113281 95.585938 C 119.191406 94.042969 118.980469 92.585938 118.515625 91.484375 C 118.117188 90.550781 117.589844 89.996094 117.058594 89.96875 C 116.101562 89.917969 115.042969 91.554688 114.625 93.765625 C 114.558594 94.113281 114.21875 94.339844 113.875 94.273438 C 113.527344 94.207031 113.296875 93.875 113.363281 93.527344 C 113.933594 90.546875 115.433594 88.605469 117.125 88.691406 C 118.179688 88.746094 119.089844 89.5625 119.695312 90.988281 C 120.234375 92.261719 120.484375 93.917969 120.390625 95.652344 C 120.261719 98.15625 119.441406 100.394531 118.253906 101.5 C 118.128906 101.617188 117.972656 101.671875 117.816406 101.671875 " fill-opacity="1" fill-rule="nonzero"/><path fill="#000000" d="M 104.242188 95.359375 C 104.160156 96.941406 104.460938 98.445312 105.089844 99.585938 C 105.664062 100.628906 106.4375 101.226562 107.265625 101.269531 C 109.0625 101.347656 110.726562 98.808594 110.886719 95.695312 C 110.96875 94.109375 110.667969 92.609375 110.039062 91.46875 C 109.464844 90.425781 108.691406 89.828125 107.863281 89.785156 C 106.078125 89.691406 104.402344 92.246094 104.242188 95.359375 Z M 107.367188 102.550781 C 107.3125 102.550781 107.257812 102.550781 107.203125 102.546875 C 105.914062 102.480469 104.765625 101.648438 103.96875 100.207031 C 103.226562 98.859375 102.871094 97.113281 102.964844 95.292969 C 103.167969 91.351562 105.351562 88.375 107.929688 88.503906 C 109.214844 88.570312 110.363281 89.40625 111.160156 90.847656 C 111.902344 92.195312 112.261719 93.941406 112.167969 95.761719 C 111.964844 99.613281 109.875 102.550781 107.367188 102.550781 " fill-opacity="1" fill-rule="nonzero"/><path fill="#000000" d="M 104.074219 93.15625 C 104.058594 93.15625 104.039062 93.15625 104.019531 93.15625 L 89.394531 91.84375 C 89.042969 91.816406 88.78125 91.503906 88.8125 91.148438 C 88.847656 90.796875 89.15625 90.539062 89.511719 90.570312 L 104.132812 91.878906 C 104.484375 91.910156 104.746094 92.222656 104.714844 92.574219 C 104.683594 92.90625 104.402344 93.15625 104.074219 93.15625 " fill-opacity="1" fill-rule="nonzero"/><path fill="#ffffff" d="M 80.765625 156.433594 C 80.765625 156.433594 86.460938 165.363281 91.585938 163.785156 C 94.28125 162.960938 96.914062 154.152344 97.988281 153.839844 C 101.425781 152.835938 107.972656 151.207031 111.992188 144.027344 C 115.746094 137.320312 114.929688 133.738281 113.960938 132.09375 C 113.515625 131.335938 113.519531 130.394531 114.015625 129.664062 C 114.734375 128.605469 115.429688 127.003906 114.707031 125.351562 C 114.453125 124.773438 114.476562 124.109375 114.722656 123.53125 C 115.679688 121.308594 117.445312 116.199219 114.011719 115.191406 C 113.082031 114.921875 112.074219 115.265625 111.507812 116.046875 C 110.417969 117.554688 108.144531 120.382812 105.328125 122.175781 C 101.351562 124.703125 98.964844 126.433594 96.96875 127.570312 C 95.253906 128.546875 94.351562 120.007812 90.238281 116.796875 C 86.585938 113.949219 85.339844 115.386719 84.976562 116.726562 C 84.609375 118.066406 86.871094 118.597656 88.160156 124.964844 C 89.671875 132.417969 88.09375 138.6875 87.632812 142.042969 C 87.097656 145.976562 80.765625 156.433594 80.765625 156.433594 " fill-opacity="1" fill-rule="nonzero"/><path fill="#000000" d="M 81.523438 156.414062 C 82.585938 157.960938 87.316406 164.425781 91.398438 163.171875 C 92.777344 162.75 94.4375 159.175781 95.539062 156.808594 C 96.65625 154.402344 97.136719 153.421875 97.808594 153.226562 L 98.242188 153.097656 C 101.78125 152.078125 107.703125 150.375 111.433594 143.714844 C 115.089844 137.183594 114.242188 133.835938 113.410156 132.417969 C 112.824219 131.425781 112.855469 130.234375 113.484375 129.308594 C 114.109375 128.382812 114.726562 126.996094 114.117188 125.609375 C 113.800781 124.890625 113.808594 124.039062 114.136719 123.277344 C 115.347656 120.453125 115.707031 118.113281 115.117188 116.859375 C 114.867188 116.332031 114.449219 115.988281 113.832031 115.804688 C 113.160156 115.609375 112.4375 115.859375 112.027344 116.425781 C 110.894531 117.984375 108.566406 120.875 105.671875 122.714844 C 103.941406 123.816406 102.527344 124.753906 101.285156 125.582031 C 99.6875 126.640625 98.429688 127.476562 97.285156 128.128906 C 96.976562 128.304688 96.644531 128.339844 96.324219 128.226562 C 95.445312 127.917969 94.921875 126.570312 94.121094 124.539062 C 93.191406 122.167969 91.921875 118.921875 89.84375 117.300781 C 87.808594 115.714844 86.808594 115.710938 86.394531 115.847656 C 85.925781 116.003906 85.699219 116.503906 85.59375 116.898438 C 85.53125 117.128906 85.664062 117.355469 86.085938 117.996094 C 86.796875 119.070312 87.984375 120.867188 88.789062 124.839844 C 90.078125 131.203125 89.164062 136.675781 88.558594 140.296875 C 88.445312 140.980469 88.34375 141.589844 88.269531 142.128906 C 87.773438 145.78125 82.652344 154.523438 81.523438 156.414062 Z M 90.335938 164.613281 C 85.285156 164.613281 80.445312 157.128906 80.226562 156.777344 C 80.09375 156.574219 80.089844 156.308594 80.21875 156.101562 C 80.28125 156 86.488281 145.710938 87 141.953125 C 87.074219 141.40625 87.179688 140.78125 87.292969 140.085938 C 87.882812 136.558594 88.773438 131.222656 87.535156 125.089844 C 86.777344 121.363281 85.675781 119.695312 85.019531 118.699219 C 84.527344 117.957031 84.136719 117.371094 84.359375 116.5625 C 84.625 115.578125 85.203125 114.894531 85.988281 114.632812 C 87.175781 114.238281 88.695312 114.78125 90.632812 116.292969 C 92.984375 118.128906 94.332031 121.5625 95.316406 124.070312 C 95.753906 125.1875 96.34375 126.695312 96.703125 126.984375 C 97.800781 126.355469 99.027344 125.542969 100.574219 124.511719 C 101.824219 123.683594 103.242188 122.742188 104.984375 121.632812 C 107.703125 119.90625 109.914062 117.15625 110.988281 115.671875 C 111.71875 114.671875 113.003906 114.230469 114.191406 114.578125 C 115.167969 114.863281 115.867188 115.449219 116.277344 116.316406 C 117.296875 118.484375 116.109375 121.925781 115.3125 123.78125 C 115.125 124.21875 115.117188 124.699219 115.292969 125.09375 C 115.960938 126.617188 115.703125 128.320312 114.546875 130.023438 C 114.195312 130.542969 114.183594 131.210938 114.511719 131.769531 C 115.699219 133.789062 116.324219 137.605469 112.550781 144.339844 C 108.566406 151.457031 102.082031 153.324219 98.597656 154.328125 L 98.230469 154.4375 C 97.921875 154.722656 97.246094 156.175781 96.699219 157.351562 C 95 161.007812 93.554688 163.851562 91.777344 164.398438 C 91.296875 164.546875 90.816406 164.613281 90.335938 164.613281 " fill-opacity="1" fill-rule="nonzero"/><path fill="#ffffff" d="M 99.527344 160.382812 L 82.285156 149.402344 C 82.285156 149.402344 58.972656 187.078125 41.320312 199.863281 C 32.726562 206.089844 16.054688 198.769531 16.054688 198.769531 C 16.054688 198.769531 0.046875 260.265625 30.941406 269.054688 C 82.410156 283.699219 99.527344 160.382812 99.527344 160.382812 " fill-opacity="1" fill-rule="nonzero"/><path fill="#000000" d="M 151.390625 256.433594 C 142.796875 256.433594 132.117188 253.460938 119.566406 247.566406 C 104.550781 240.511719 91.65625 231.523438 85.304688 226.796875 C 85.023438 226.585938 84.964844 226.183594 85.175781 225.898438 C 85.386719 225.617188 85.789062 225.558594 86.070312 225.769531 C 105.898438 240.535156 135.820312 257.042969 154.871094 254.96875 C 155.21875 254.9375 155.539062 255.1875 155.574219 255.539062 C 155.613281 255.890625 155.359375 256.207031 155.007812 256.242188 C 153.847656 256.371094 152.640625 256.433594 151.390625 256.433594 " fill-opacity="1" fill-rule="nonzero"/><path fill="#000000" d="M 125.28125 209.050781 C 114.535156 209.050781 94.695312 199.765625 93.773438 199.332031 C 93.453125 199.179688 93.316406 198.796875 93.464844 198.480469 C 93.617188 198.160156 93.996094 198.019531 94.316406 198.171875 C 94.5625 198.289062 118.945312 209.703125 127.972656 207.496094 C 134.316406 205.941406 138.191406 201.574219 139.492188 194.511719 C 140.480469 189.152344 139.539062 184.171875 139.527344 184.125 C 139.460938 183.777344 139.6875 183.441406 140.035156 183.375 C 140.382812 183.304688 140.71875 183.535156 140.785156 183.878906 C 140.828125 184.089844 144.652344 204.730469 128.273438 208.738281 C 127.394531 208.953125 126.382812 209.050781 125.28125 209.050781 " fill-opacity="1" fill-rule="nonzero"/><path fill="#000000" d="M 39.808594 202.296875 C 39.613281 202.296875 39.421875 202.207031 39.296875 202.039062 C 39.082031 201.753906 39.140625 201.355469 39.425781 201.144531 C 58.015625 187.253906 81.046875 149.152344 81.277344 148.769531 C 81.460938 148.464844 81.855469 148.367188 82.15625 148.550781 C 82.457031 148.730469 82.558594 149.125 82.375 149.429688 C 82.144531 149.8125 58.980469 188.128906 40.191406 202.167969 C 40.078125 202.253906 39.941406 202.296875 39.808594 202.296875 " fill-opacity="1" fill-rule="nonzero"/><path fill="#000000" d="M 38.316406 271.503906 C 37.652344 271.503906 36.988281 271.472656 36.324219 271.414062 C 35.972656 271.386719 35.710938 271.074219 35.742188 270.722656 C 35.773438 270.371094 36.085938 270.109375 36.433594 270.140625 C 45.753906 270.941406 54.835938 265.738281 63.414062 254.667969 C 70.351562 245.714844 76.960938 232.949219 83.0625 216.726562 C 92.78125 190.890625 98.105469 164.34375 98.816406 160.691406 L 91.664062 156.140625 C 91.367188 155.949219 91.28125 155.554688 91.46875 155.257812 C 91.660156 154.957031 92.054688 154.871094 92.351562 155.058594 L 99.871094 159.84375 C 100.089844 159.984375 100.203125 160.246094 100.15625 160.5 C 100.101562 160.789062 94.714844 189.382812 84.265625 217.164062 C 78.117188 233.507812 71.445312 246.390625 64.429688 255.445312 C 56.171875 266.109375 47.394531 271.503906 38.316406 271.503906 " fill-opacity="1" fill-rule="nonzero"/><path fill="#000000" d="M 36.378906 271.417969 C 36.347656 271.417969 36.316406 271.414062 36.28125 271.410156 C 27.5625 270.070312 20.996094 266.261719 16.769531 260.085938 C 8.957031 248.675781 8.542969 229.722656 15.425781 198.632812 C 15.503906 198.289062 15.84375 198.070312 16.191406 198.144531 C 16.539062 198.222656 16.753906 198.5625 16.679688 198.910156 C 9.96875 229.210938 10.335938 248.417969 17.824219 259.359375 C 21.902344 265.3125 28.003906 268.84375 36.476562 270.144531 C 36.828125 270.199219 37.066406 270.527344 37.011719 270.875 C 36.964844 271.191406 36.691406 271.417969 36.378906 271.417969 " fill-opacity="1" fill-rule="nonzero"/></svg>