<svg xmlns="http://www.w3.org/2000/svg" xmlns:xlink="http://www.w3.org/1999/xlink" width="30" zoomAndPan="magnify" viewBox="0 0 375 374.999991" height="30" preserveAspectRatio="xMidYMid meet" version="1.0"><defs><clipPath id="8c191ee7cb"><path d="M 7 17.351562 L 348 17.351562 L 348 357.851562 L 7 357.851562 Z M 7 17.351562 " clip-rule="nonzero"/></clipPath></defs><path fill="#0652e9" d="M 126.765625 124.976562 L 86.65625 165.097656 L 177.628906 256.097656 L 367.882812 65.785156 L 327.769531 25.664062 L 177.628906 175.851562 Z M 126.765625 124.976562 " fill-opacity="1" fill-rule="nonzero"/><g clip-path="url(#8c191ee7cb)"><path fill="#0652e9" d="M 316.140625 157.664062 C 318.238281 167.339844 319.460938 177.328125 319.460938 187.601562 C 319.460938 265.828125 255.832031 329.476562 177.628906 329.476562 C 99.421875 329.476562 35.796875 265.828125 35.796875 187.601562 C 35.796875 109.371094 99.421875 45.726562 177.628906 45.726562 C 203.382812 45.726562 227.269531 53.160156 248.117188 65.21875 L 269.136719 44.191406 C 242.671875 27.28125 211.355469 17.351562 177.628906 17.351562 C 83.621094 17.351562 7.429688 93.566406 7.429688 187.601562 C 7.429688 281.636719 83.621094 357.851562 177.628906 357.851562 C 271.632812 357.851562 347.824219 281.636719 347.824219 187.601562 C 347.824219 169.042969 344.761719 151.25 339.289062 134.539062 Z M 316.140625 157.664062 " fill-opacity="1" fill-rule="nonzero"/></g></svg>